<?xml version="1.0" encoding="utf-8"?>
<!-- Generator: Adobe Illustrator 16.0.0, SVG Export Plug-In . SVG Version: 6.00 Build 0)  -->
<!DOCTYPE svg PUBLIC "-//W3C//DTD SVG 1.1//EN" "http://www.w3.org/Graphics/SVG/1.1/DTD/svg11.dtd">
<svg version="1.1" id="Layer_1" xmlns="http://www.w3.org/2000/svg" xmlns:xlink="http://www.w3.org/1999/xlink" x="0px" y="0px"
	 width="35px" height="60px" viewBox="0 0 35 60" enable-background="new 0 0 35 60" xml:space="preserve">
<polygon stroke="#FFFFFF" stroke-miterlimit="10" points="7.31,48.356 7.31,44.619 10.513,41.328 8.2,38.569 4.73,33.409 
	5.441,25.936 8.911,21.399 13.716,21.399 16.651,20.153 16.651,16.861 13.716,16.861 13.716,14.726 16.651,14.726 16.651,10.634 
	18.075,11.345 18.075,14.104 20.121,14.637 20.121,16.505 18.52,16.684 17.897,20.776 21.011,21.132 25.459,21.755 28.039,25.225 
	29.729,29.495 29.196,35.634 26.527,39.815 23.769,40.883 23.058,42.307 26.794,43.729 26.794,47.645 26.705,49.958 21.9,51.203 
	17.986,52.182 12.826,51.025 "/>
</svg>
