<?xml version="1.0" encoding="utf-8"?>
<!-- Generator: Adobe Illustrator 16.0.0, SVG Export Plug-In . SVG Version: 6.00 Build 0)  -->
<!DOCTYPE svg PUBLIC "-//W3C//DTD SVG 1.1//EN" "http://www.w3.org/Graphics/SVG/1.1/DTD/svg11.dtd">
<svg version="1.1" id="Layer_1" xmlns="http://www.w3.org/2000/svg" xmlns:xlink="http://www.w3.org/1999/xlink" x="0px" y="0px"
	 width="200px" height="160px" viewBox="0 0 200 160" enable-background="new 0 0 200 160" xml:space="preserve">
<g id="wZGZYK_1_">
	<g>
		<path fill="#FFFFFF" d="M73.411,80.289c0-25.624,0.021-51.248-0.048-76.872c-0.005-1.718,0.346-2.065,2.063-2.063
			c39.156,0.062,78.311,0.062,117.467,0c1.717-0.002,2.064,0.346,2.062,2.063c-0.058,51.439-0.058,102.88,0,154.32
			c0.002,1.717-0.346,2.065-2.062,2.062c-39.156-0.062-78.312-0.062-117.467,0c-1.717,0.003-2.068-0.345-2.063-2.062
			C73.432,131.921,73.411,106.104,73.411,80.289z"/>
		<path fill-rule="evenodd" clip-rule="evenodd" fill="#020202" d="M124.108,108.018c8.934-3.633,14.158-10.302,16.301-19.621
			c0.507-2.209,0.277-4.354,0.088-6.596c-0.766,2.654-1.604,5.29-2.283,7.966c-2.387,9.424-9.687,13.217-18.032,15.807
			c-0.992,0.309-2.062,0.478-3.1,0.498c-1.662,0.033-2.024,0.55-2.532,2.34c-0.479,1.688,0.006,4.394-2.501,5.298
			c-0.339,0.233-0.634,0.188-0.888-0.135c0.366-1.646,0.601-3.335,1.131-4.926c0.677-2.025-0.004-2.898-2.025-2.969
			c-0.668-0.023-1.338-0.026-2.004-0.069c-0.792-0.051-1.736-0.211-1.579-1.193c0.141-0.878,1.194-0.654,1.673-0.413
			c1.119,0.563,2.26-0.116,3.373,0.269c0.344,0.119,0.844-0.397,0.802-0.968c-0.05-0.695-0.613-0.717-1.038-0.559
			c-1.615,0.606-3.21,0.136-4.805-0.02c-0.702-0.067-2.026,0.486-1.798-0.929c0.176-1.097,1.436-0.955,2.168-0.672
			c1.549,0.601,2.969,0.19,4.472-0.06c0.868-0.145,1.187-0.488,1.134-1.261c-0.062-0.918-0.631-0.82-1.399-0.836
			c-3.701-0.073-7.402-0.229-10.908-1.683c-2-0.828-3.491-2.257-4.894-3.823c-0.592-0.287-0.482-0.663-0.133-1.067
			c2.029-2.157,2.074,1.053,3.251,1.201c4.134,1.467,8.221,3.192,12.797,2.258c-2.199-0.715-4.529-0.654-6.788-1.016
			c-1.515-0.241-3.085-0.365-3.898-1.982c-0.087-0.81-1.242-1.236-0.8-2.234c0.738-0.429,1.481-0.342,2.183,0.053
			c2.805,1.578,5.848,1.665,9.021,1.454c-3.511-0.416-7.086-0.276-10.062-2.505c-1.496-0.606-2.996-1.202-4.485-1.821
			c-1.269-0.528-2.17-1.253-1.312-2.932c4.997,3.035,10.643,3.776,16.195,4.857c0.81,0.157,1.826,0.3,1.949-0.505
			c0.156-1.021-0.993-0.711-1.667-0.9c-5.595-1.578-10.707-3.937-14.139-8.951c-0.511-0.747-1.111-1.484-0.005-2.145
			c1.006-0.602,1.55,0.068,1.961,0.911c0.515,1.057,1.335,1.86,2.228,2.587c0.349,0.284,1.072,0.728,1.126,0.665
			c2.003-2.311,2.792-0.226,4.124,0.899c1.528,1.29,3.581,1.614,5.609,1.647c0.799,0.014,1.281-0.291,1.291-1.135
			c0.011-0.884-0.279-1.297-1.321-1.391c-3.259-0.294-5.753-2.26-8.229-4.158c-0.515-0.396-1.293-1.061-0.393-1.843
			c0.719-0.624,1.164-0.021,1.659,0.464c1.728,1.698,3.927,2.668,6.067,3.67c0.742,0.348,2.066,0.704,2.482-0.505
			c0.513-1.489-1.047-0.862-1.617-1.274c-1.319-0.954-3.158-1.216-4.06-2.859c1.318-0.873,1.959,0.01,2.81,0.636
			c2.021,1.49,3.077,1.046,3.259-1.486c0.77-10.742,2.486-21.407,2.626-32.2c0.013-1.023-0.227-2.132,0.568-3.024
			c0.514-0.124,0.81-0.033,0.57,0.583c-0.022,11.556-0.782,23.073-1.99,34.557c-0.174,1.661,0.135,1.963,1.589,1.408
			c1.169-0.446,2.316-0.894,2.942-2.112c1.27-2.471,3.316-3.829,6.54-4.057c-3.319-2.541-1.905-5.815-2.14-8.768
			c-0.061-0.763,0.598-0.859,1.141-1.02c0.831,1.97,3.005,0.838,4.428,1.914c1.26,0.952,3.371,0.846,5.146,2.274
			c-0.502-6.546-0.782-12.512-1.877-18.4c-0.276-1.493-0.686-2.988,0.051-4.473c0.198-0.241,0.438-0.294,0.719-0.164
			c1.776,5.433,2.201,11.106,3.135,16.697c0.572,3.428,1.066,6.7,0.077,10.065c-0.408,1.389,0.59,2.061,1.514,2.379
			c2.299,0.792,4.043,2.401,6.006,3.687c0.732,0.48,1.188,1.473,2.397,0.663c0.744-0.499,1.228,0.188,1.253,0.973
			c0.182,5.535,2.571,11.007,0.23,16.627c-1.047,2.514-1.765,5.167-3.044,7.596c-0.472,0.005-0.835-0.078-0.549-0.684
			c0.9-2.863,1.72-5.756,2.721-8.584c1.542-4.357-0.349-8.411-0.93-12.583c-0.128-0.926-0.899-1.073-1.478-0.991
			c-1.26,0.178-0.358,1.03-0.249,1.502c1.154,5.02,0.829,9.93-0.312,14.957c-1.675,7.373-7.345,11.207-12.792,15.234
			c-1.101,0.812-2.758,3.396-4.104,1.308c-0.774-1.201,2.122-1.369,3.288-2.096c5.607-3.494,8.552-8.669,9.892-14.944
			c0.242-2.903,1.188-5.692,1.39-8.602c-0.393-1.704-0.191-3.424-0.377-4.919c0.038,1.478,0.097,3.174,0.289,4.87
			c-0.199,2.597-0.427,5.187-1.763,7.517c-2.1,5.337-4.981,10.19-9.516,13.781c-1.958,1.549-4.191,2.894-6.734,3.466
			C124.628,108.859,124.123,109.007,124.108,108.018z"/>
		<path fill-rule="evenodd" clip-rule="evenodd" fill="#020202" d="M153.373,29.059c0.45,2.917,0.921,5.83,1.344,8.751
			c0.316,2.181,0.724,4.313,2.263,6.029c0.16,0.227,0.229,0.479,0.225,0.754c1.074,4.302-0.782,8.471-0.482,12.776
			c1.246-2.087,2.016-4.271,1.593-6.761c-0.175-1.029-0.492-2.058-0.122-3.114c0.208-0.408,0.465-0.731,0.995-0.595
			c1.554,2.749,1.801,5.499,1.181,8.706c-0.6,3.101-0.623,6.474,0.257,9.636c0.562,2.019,0.506,3.752-1.051,5.262
			c-1.52,1.474-1.096,2.7,0.512,3.697c1.167,0.725,3.023,1.283,2.255,2.952c-0.786,1.71-2.483,2.367-4.564-0.045
			c0.194,2.746,0.113,3.997,2.712,4.528c2.515,0.514,3.181,3.555,3.943,5.895c0.248,0.758,0.208,1.516,1.206,1.624
			c6.919,0.746,10.208,5.728,12.548,11.345c2.21,5.303,2.077,11.066,1.642,16.704c-0.144,1.857,0.278,2.969,1.607,4.131
			c5.087,4.446,6.806,10.822,9.362,16.711c0.377,0.868-0.126,1.552-0.833,1.915c-1.005,0.516-1.382-0.421-1.671-1.06
			c-0.389-0.857-0.572-1.808-0.845-2.718c-2.326-7.743-6.885-13.983-13.291-18.756c-4.29-3.197-9.554-4.409-14.587-6.009
			c-0.979-0.312-1.955-0.654-2.894-1.069c-0.536-0.237-0.482-1.465-1.395-1.056c-0.901,0.404-0.556,1.376-0.491,2.071
			c0.803,8.667,0.53,17.377,1.077,26.05c0.323,5.131,0.857,10.25,1.379,15.366c0.095,0.933,0.428,1.728-0.938,1.823
			c-1.196,0.084-1.081-0.738-1.139-1.516c-0.8-10.898-1.25-21.808-1.308-32.738c-0.035-6.813-0.157-13.632-0.449-20.438
			c-0.237-5.548-0.795-11.072-1.939-16.536c-0.427-2.034-0.297-4.197-0.309-6.302c-0.01-1.592-0.473-2.942-1.393-4.243
			c-2.021-2.86-3.006-6.023-1.466-9.373c1.778-3.871,0.759-7.905,1.07-11.858c-0.254-0.743-0.592-1.506,0.437-1.962
			c1.94,0.917,0.996,3.129,2.07,4.671c1.688-1.188,1.792-2.748,1.651-4.553c-0.494-6.297-0.768-12.614-1.873-18.851
			c-0.135-0.76-0.069-1.534,0.326-2.241C152.689,27.963,153.039,28.483,153.373,29.059z"/>
		<path fill-rule="evenodd" clip-rule="evenodd" fill="#FEFEFE" d="M152.373,28.499c-0.029,3.943,0.912,7.771,1.368,11.657
			c0.434,3.695-0.032,7.457,0.782,11.135c0.093,0.42-0.06,1.002-0.307,1.37c-0.822,1.224-1.213,3.441-2.824,3.204
			c-1.351-0.198-0.736-2.299-0.976-3.562c-0.161-0.842-0.336-1.681-0.504-2.521c-0.72-0.941-0.345-2.219-0.98-3.186
			c-0.179-2.26-0.045-4.525-0.087-6.785c-0.063-1.055,0.2-2.153-0.395-3.142c-0.618-1.655-0.682-3.451-1.296-5.106
			c-0.372-2.843-2.191-5.291-2.246-8.221c-0.222-0.203-0.443-0.406-0.664-0.61c-0.639-0.49-1.313-0.945-1.659-1.718
			c-0.713-0.357-1.428-0.708-2.264-0.61c-1.099,0.008-2.202-0.077-3.295,0.049c-1.427,0.164-1.117-0.794-1.094-1.589
			c1.797-1.291,2.971-3.112,4.209-4.889c0.587-0.842,1.153-1.77,2.275-2.041c0.595-0.081,1.157,0.04,1.495,0.553
			c1.03,1.567,1.989,2.12,3.342,0.225c0.797-1.116,1.783-0.733,2.535,0.281c0.55,2.295,2.09,4.216,2.482,6.57
			c0.14,2.032-0.206,4.082,0.244,6.1C152.522,26.612,152.798,27.573,152.373,28.499z"/>
		<path fill-rule="evenodd" clip-rule="evenodd" fill="#FDFDFD" d="M134.586,40.543c-0.448,4.213,0.966,8.237,1.359,12.368
			c0.343,3.608,0.223,7.29,1.205,10.857c0.334,1.213-0.835,1.214-1.428,0.618c-1.662-1.67-3.758-2.223-5.926-2.274
			c-1.481-0.035-0.89-1.125-1.277-1.72c-0.638,0.188-0.407,0.732-0.449,1.108c-0.079,0.71-0.259,1.505-1.014,1.496
			c-1.014-0.012-0.594-0.983-0.649-1.565c-0.063-0.661-0.002-1.335,0.006-2.003l-0.028-0.21c0.877-4.722,0.108-9.497,0.453-14.259
			c0.339-4.67,0.972-9.278,1.562-13.904c0.309-1.762,1.112-3.392,1.347-5.184c0.123-0.938,0.411-1.93,1.77-1.65
			c1.968,1.234,0.59,3.642,1.803,5.142l-0.025,0.233c0.292,0.542-0.049,1.086,0.006,1.629c0.038,1.263-0.163,2.542,0.251,3.781
			C133.738,36.882,134.592,38.632,134.586,40.543z"/>
		<path fill-rule="evenodd" clip-rule="evenodd" fill="#0A0A0A" d="M111.161,113.574c0.296,0.045,0.592,0.09,0.888,0.135
			c-1.682,2.64-4.744,2.88-7.245,3.959c-6.004,2.59-12.182,4.718-17.864,8.09c-4.688,2.782-6.927,6.839-7.746,11.971
			c-0.166,1.042,0.229,2.746-1.553,2.383c-1.721-0.35-0.952-1.826-0.768-3.014c1.333-8.596,7.382-12.914,14.658-15.942
			C98.004,118.461,104.612,116.089,111.161,113.574z"/>
		<path fill-rule="evenodd" clip-rule="evenodd" fill="#121212" d="M142.517,12.198c-1.395,1.487-2.692,3.058-3.536,4.925
			c-0.534,1.181-1.373,1.687-2.62,1.631c-0.293,0.261-0.569,0.245-0.83-0.05c-1.516-2.669,0.55-5.312,0.075-8
			c-0.137-0.773,0.67-0.814,1.181-0.414c0.437,0.342,0.812,0.816,1.084,1.305c1.404,2.515,2.206,1.791,2.975-0.435
			c0.365-1.059,0.871-2.779,2.279-0.639C143.543,11.305,143.367,11.874,142.517,12.198z"/>
		<path fill-rule="evenodd" clip-rule="evenodd" fill="#121212" d="M128.729,30.852c-0.574,5.503-1.31,10.997-1.658,16.515
			c-0.187,2.956,0.298,5.953,0.472,8.931c0.066,1.148,0.107,2.294-1.157,2.919c-1.888-2.101-0.319-4.237-0.065-6.361
			c-0.342-1.903-0.35-3.806,0.022-5.707c-0.174-5.733,0.398-11.385,1.828-16.945C128.691,30.131,129.035,30.21,128.729,30.852z"/>
		<path fill-rule="evenodd" clip-rule="evenodd" fill="#F7F7F6" d="M100.692,92.857c3.196,1.859,6.778,1.4,10.231,1.674
			c0.995,0.079,2.253-0.47,2.218,1.272c-0.034,1.71-1.239,1.239-2.264,1.209c-4.383-0.133-8.767-0.224-12.296-3.415
			C99.285,93.352,99.988,93.104,100.692,92.857z"/>
		<path fill-rule="evenodd" clip-rule="evenodd" fill="#111111" d="M151.833,19.215c-1.196-1.949-2.623-3.81-2.414-6.297
			c-0.192-1.5,1.396-0.427,1.716-1.188c0.396-0.72,0.791-1.44,1.186-2.161c0.117,3.47,1.632,6.803,0.493,10.228
			C152.179,20.123,152.039,19.613,151.833,19.215z"/>
		<path fill-rule="evenodd" clip-rule="evenodd" fill="#F8F7F7" d="M101.033,89.625c3.435,0.682,6.812,1.711,10.37,1.624
			c0.807-0.021,1.977-0.237,1.908,0.995c-0.058,1.05-1.164,0.722-1.872,0.709c-3.649-0.067-7.478,0.628-10.467-2.403
			c-0.166-0.168-0.711,0.04-1.081,0.073C100.272,90.29,100.652,89.957,101.033,89.625z"/>
		<path fill-rule="evenodd" clip-rule="evenodd" fill="#242525" d="M151.135,11.73c-0.572,0.396-1.144,0.792-1.716,1.188
			c-1.09-1.002-1.785-0.207-2.153,0.661c-1.143,2.688-2.136,2.156-3.167-0.031c-0.325-0.691-0.651-1.373-1.582-1.35
			c0.202-0.559,0.405-1.118,0.607-1.677c1.941,2.842,1.969,2.865,4.148,0.144c0.702-0.878,1.356-1.068,1.979-0.109
			C149.729,11.292,150.021,12.104,151.135,11.73z"/>
		<path fill-rule="evenodd" clip-rule="evenodd" fill="#020202" d="M149.287,39.397c0.07,2.421,0.14,4.843,0.21,7.264
			c0.026,0.89,0.854,1.961-0.571,2.521c-0.051-0.509-0.102-1.018-0.151-1.526c-0.523-1.368,0.104-2.848-0.41-4.216
			c0.251-3.707-0.741-7.268-1.279-10.882c-0.262-0.616-0.523-1.23,0.57-1.204c0.41,1.686,0.82,3.373,1.231,5.059
			C149.403,37.356,148.874,38.44,149.287,39.397z"/>
		<path fill-rule="evenodd" clip-rule="evenodd" fill="#3C3C3C" d="M118.331,39.418c-0.19-0.194-0.381-0.388-0.57-0.583
			c0.188-4.125,0.459-8.232,2.485-11.972C119.336,31.013,119.948,35.392,118.331,39.418z"/>
		<path fill-rule="evenodd" clip-rule="evenodd" fill="#292A2A" d="M128.729,30.852c-0.186-0.216-0.372-0.432-0.559-0.647
			c0.399-1.904,0.749-3.819,1.217-5.706c0.225-0.902,0.93-1.417,1.903-1.313c0.746,0.079,0.872,0.572,0.607,1.211l-0.161-0.052
			c-1.049-0.056-1.27,0.575-1.275,1.462C130.447,27.674,129.581,29.264,128.729,30.852z"/>
		<path fill-rule="evenodd" clip-rule="evenodd" fill="#323232" d="M147.655,31.354c-0.189,0.401-0.38,0.803-0.57,1.204
			c-1.108-2.333-1.411-4.965-2.738-7.231c-0.388-0.662-0.127-1.464,0.562-1.987C146.275,25.857,147.017,28.588,147.655,31.354z"/>
		<path fill-rule="evenodd" clip-rule="evenodd" fill="#2A2B2B" d="M145.898,98.582c0.184,0.228,0.366,0.455,0.549,0.684
			c-0.598,1.6-1.467,3.035-2.645,4.274c-0.454,0.479-0.997,0.562-1.457,0.031c-0.407-0.471-0.063-1.013,0.275-1.205
			C144.173,101.479,144.398,99.481,145.898,98.582z"/>
		<path fill-rule="evenodd" clip-rule="evenodd" fill="#232424" d="M135.53,18.704c0.276,0.017,0.554,0.033,0.83,0.05
			c-0.248,1.026,0.466,0.958,1.133,1.071c0.947,0.162,2.082-0.547,2.829,0.579c-1.668,1.269-3.406,0.313-5.127,0.183
			c-1.127-0.085-2.265-0.054-3.396-0.075c-0.568,0.214-0.828,0.014-0.789-0.588c1.127-0.068,2.255-0.189,3.382-0.186
			C135.161,19.74,135.732,19.694,135.53,18.704z"/>
		<path fill-rule="evenodd" clip-rule="evenodd" fill="#E6E5E5" d="M141.475,91.251c0.531-2.501,1.062-5.001,1.593-7.503
			c0.168-0.183,0.33-0.168,0.484,0.019c0.432,3.055-0.675,5.822-1.616,8.619C141.782,92.008,141.629,91.63,141.475,91.251z"/>
		<path fill-rule="evenodd" clip-rule="evenodd" fill="#F3F3F3" d="M100.264,98.886c-0.974,1.345-1.32,2.634-0.537,4.125
			c-1.317-0.711-2.299-1.477-2.055-2.952C97.866,98.892,98.717,98.62,100.264,98.886z"/>
		<path fill-rule="evenodd" clip-rule="evenodd" fill="#2E2E2E" d="M134.586,40.543c-0.874-1.76-1.453-3.591-1.359-5.586
			c-0.36-0.909-0.18-1.851-0.169-2.783c0.152-0.35,0.396-0.433,0.73-0.247c-0.229,2.958,1.403,5.683,1.091,8.651l-0.152,0.029
			L134.586,40.543z"/>
		<path fill-rule="evenodd" clip-rule="evenodd" fill="#5E5E5D" d="M131.736,24.344l0.161,0.052c2.538,1.064,0.97,3.304,1.422,4.965
			C131.027,28.245,132.865,25.827,131.736,24.344z"/>
		<path fill-rule="evenodd" clip-rule="evenodd" fill="#343434" d="M123.784,29.827c-0.646-0.238-1.29-0.591-1.097-1.355
			c0.152-0.603,0.585-1.268,1.385-1.131c0.659,0.113,1.33,0.469,1.057,1.314C124.938,29.244,124.62,29.884,123.784,29.827z"/>
		<path fill-rule="evenodd" clip-rule="evenodd" fill="#5E5E5E" d="M151.833,19.215c0.326,0.194,0.653,0.388,0.98,0.582
			c-0.013,0.788-0.025,1.576-0.038,2.365c-0.59,1.138,0.295,2.514-0.579,3.606C151.222,23.631,152.247,21.383,151.833,19.215z"/>
		<path fill-rule="evenodd" clip-rule="evenodd" fill="#CECDCD" d="M138.582,27.903c0.587,1.889-0.134,2.345-1.861,1.697
			c-0.316-0.767-0.662-1.617,0.063-2.26C137.548,26.663,138.073,27.406,138.582,27.903z"/>
		<path fill-rule="evenodd" clip-rule="evenodd" fill="#050505" d="M138.582,27.903c-2.449-1.44-1.713,0.614-1.861,1.697
			c-1.149-0.999-1.454-2.387-0.271-3.217C137.243,25.827,138.415,26.593,138.582,27.903z"/>
		<path fill-rule="evenodd" clip-rule="evenodd" fill="#505050" d="M152.196,25.769c0.26-1.191-0.278-2.511,0.579-3.606
			c0.199,2.299,0.398,4.598,0.598,6.897c-0.333-0.187-0.667-0.373-1-0.56C152.314,27.589,152.256,26.679,152.196,25.769z"/>
		<path fill-rule="evenodd" clip-rule="evenodd" fill="#323332" d="M124.108,108.018c0.372,0.16,0.744,0.32,1.116,0.48
			c-1.398,0.766-2.844,1.314-4.625,1.05C121.446,108.016,122.889,108.276,124.108,108.018z"/>
		<path fill-rule="evenodd" clip-rule="evenodd" fill="#494949" d="M123.475,23.355c-0.814,0.742-1.628,1.485-2.7,2.463
			C120.84,23.708,121.693,22.898,123.475,23.355z"/>
		<path fill-rule="evenodd" clip-rule="evenodd" fill="#222222" d="M159.188,46.899c-0.209,0.236-0.418,0.473-0.627,0.709
			c-1.417-0.538-1.721-1.684-1.654-3.032c0.024-0.246,0.049-0.492,0.073-0.738C158.505,44.29,158.684,45.712,159.188,46.899z"/>
		<path fill-rule="evenodd" clip-rule="evenodd" fill="#DEDEDD" d="M95.97,80.53c-0.736-0.753-1.24-1.572-1.085-2.856
			C96.168,78.439,95.947,79.552,95.97,80.53z"/>
		<path fill-rule="evenodd" clip-rule="evenodd" fill="#1B1C1C" d="M126.342,47.149c-0.008,1.902-0.016,3.804-0.022,5.707
			C125.567,50.951,125.77,49.05,126.342,47.149z"/>
		<path fill-rule="evenodd" clip-rule="evenodd" fill="#181818" d="M148.926,49.182c0.768-0.709,0.349-1.688,0.571-2.521
			c0.698,0.965,0.461,2.056,0.416,3.121c-0.622,0.476-0.423,1.192-0.535,1.818C148.704,50.892,148.826,50.035,148.926,49.182z"/>
		<path fill-rule="evenodd" clip-rule="evenodd" fill="#C9C8C8" d="M96.754,81.724c0.9-0.464,1.427-0.109,1.858,0.757
			C97.653,82.986,97.199,82.441,96.754,81.724z"/>
		<path fill-rule="evenodd" clip-rule="evenodd" fill="#363737" d="M131.01,19.923c0.263,0.196,0.525,0.392,0.789,0.588
			c-0.928,0.616-1.965,0.247-3.507,0.708C129.441,20.231,130.151,19.903,131.01,19.923z"/>
		<path fill-rule="evenodd" clip-rule="evenodd" fill="#181818" d="M148.364,43.44c0.911,1.33,0.356,2.802,0.41,4.215
			C147.913,46.321,148.34,44.861,148.364,43.44z"/>
		<path fill-rule="evenodd" clip-rule="evenodd" fill="#E6E6E6" d="M95.33,92.396c0.044,0.355,0.089,0.712,0.133,1.067
			c-0.654-0.245-1.748-0.288-1.535-1.184C94.1,91.558,94.839,92.328,95.33,92.396z"/>
		<path fill-rule="evenodd" clip-rule="evenodd" fill="#2F2F2F" d="M126.432,21.239c-0.379,1.255-1.275,0.895-2.41,0.821
			C124.922,21.498,125.372,20.64,126.432,21.239z"/>
		<path fill-rule="evenodd" clip-rule="evenodd" fill="#F4F5F5" d="M84.262,121.781c-0.219,0.045-0.578,0.199-0.916,0.162
			c-0.259-0.027-0.46-0.435-0.186-0.591c0.29-0.166,0.718-0.129,1.082-0.111C84.514,121.253,84.554,121.444,84.262,121.781z"/>
		<path fill-rule="evenodd" clip-rule="evenodd" fill="#656464" d="M142.586,21.013c0.676,0.453,1.493,0.772,1.659,1.718
			C142.986,22.84,142.627,22.081,142.586,21.013z"/>
		<path fill-rule="evenodd" clip-rule="evenodd" fill="#E5E5E5" d="M100.709,84.641c0.198,0.269,0.383,0.446,0.475,0.662
			c0.186,0.441-0.005,0.7-0.478,0.682c-0.302-0.013-0.551-0.17-0.424-0.533C100.37,85.202,100.528,84.977,100.709,84.641z"/>
		<path fill-rule="evenodd" clip-rule="evenodd" fill="#DDDDDD" d="M96.046,83.605c-0.182-0.27-0.493-0.545-0.552-0.868
			c-0.066-0.356,0.298-0.417,0.519-0.207c0.261,0.247,0.434,0.587,0.645,0.887C96.492,83.469,96.326,83.52,96.046,83.605z"/>
		<path fill-rule="evenodd" clip-rule="evenodd" fill="#404040" d="M133.788,31.927l-0.243-0.004l-0.243,0.006
			c-0.414-0.276-0.189-0.838-0.514-1.155c0.168-0.393,0.337-0.786,0.506-1.179C133.993,30.259,133.938,31.083,133.788,31.927z"/>
		<path fill-rule="evenodd" clip-rule="evenodd" fill="#FAFAFA" d="M136.982,86.543c-1.035,5.127-2.77,9.647-7.047,12.567
			c-4.002,2.731-8.336,4.882-13.334,5.233c-0.882,0.062-1.827,0.345-2.146-0.759c-0.333-1.151,0.644-1.621,1.468-1.671
			C126.085,101.305,130.715,93.3,136.982,86.543z"/>
		<path fill-rule="evenodd" clip-rule="evenodd" fill="#F8F8F7" d="M136.465,76.296c0.945,2.968,0.832,5.503-0.772,8.327
			c-3.467,6.102-8.165,10.869-14.059,14.509c-1.424,0.88-3.14,1.329-4.855,1.431c-0.613,0.036-1.534,0.989-1.862-0.328
			c-0.28-1.122,0.409-1.319,1.414-1.576c4.886-1.248,9.017-3.879,12.588-7.39c3.433-3.375,5.194-7.614,6.095-12.261
			C135.206,78.003,135.192,76.924,136.465,76.296z"/>
		<path fill-rule="evenodd" clip-rule="evenodd" fill="#FAF9F9" d="M132.176,80.927c-1.134,6.502-5.018,10.867-10.756,13.76
			c-1.439,0.726-2.923,1.371-4.417,1.978c-0.667,0.271-1.604,0.789-2.05-0.072c-0.455-0.882-0.185-1.875,0.752-2.511
			c0.236-0.161,0.439-0.44,0.693-0.495c7.524-1.629,11.98-6.771,15.256-13.275C132.11,80.278,132.436,80.354,132.176,80.927z"/>
		<path fill-rule="evenodd" clip-rule="evenodd" fill="#FAF9F9" d="M114.995,88.674c5.866-1.33,8.049-6.022,10.827-10.165
			c0.565-0.843,0.691-2.789,2.565-1.863c1.868,0.923,0.671,2.282,0.289,3.423c-1.756,5.244-5.609,8.132-10.833,9.353
			C117.104,89.595,116.176,89.878,114.995,88.674z"/>
		<path fill-rule="evenodd" clip-rule="evenodd" fill="#EAE9E8" d="M121.241,75.86c-0.064,2.848-1.393,5.021-3.589,6.647
			c-0.41,0.304-1.002,1.194-1.665,0.3c-0.557-0.75-0.233-1.492,0.45-1.926C118.437,79.612,120.145,78.099,121.241,75.86z"/>
		<path fill-rule="evenodd" clip-rule="evenodd" fill="#EFEEED" d="M122.81,79.7c-1.123,2.732-3.282,4.585-5.446,6.442
			c-0.566,0.486-1.274,0.821-1.717,0.202c-0.52-0.729-0.071-1.605,0.725-1.837c2.896-0.84,4.142-3.43,5.973-5.401
			C122.594,79.23,122.754,79.424,122.81,79.7z"/>
		<path fill-rule="evenodd" clip-rule="evenodd" fill="#E9E8E7" d="M134.77,69.841c3.257-0.148,5.313,2.081,7.692,3.72
			c-3.918-0.816-7.283-3.371-11.447-3.161C132.073,68.915,133.493,69.862,134.77,69.841z"/>
		<path fill-rule="evenodd" clip-rule="evenodd" fill="#BEBEBE" d="M143.552,83.767l-0.243,0.021l-0.241-0.039
			c-1.159-1.614-0.153-3.409-0.486-5.1C144.195,80.134,143.513,82.015,143.552,83.767z"/>
		<path fill-rule="evenodd" clip-rule="evenodd" fill="#D1CFCE" d="M108.122,84.928c2.054-0.005,3.245,0.794,4.57,0.427
			c0.383-0.107,1.022-0.01,1.006,0.651c-0.021,0.836-0.698,0.791-1.226,0.671C111.155,86.377,109.751,86.256,108.122,84.928z"/>
		<path fill-rule="evenodd" clip-rule="evenodd" fill="#F1EFEF" d="M122.81,79.7c-0.155-0.198-0.311-0.396-0.466-0.593
			c0.648-1.08,0.331-2.632,1.636-3.37c0.119-0.067,0.636,0.24,0.624,0.319C124.384,77.45,123.866,78.712,122.81,79.7z"/>
		<path fill-rule="evenodd" clip-rule="evenodd" fill="#DAD9D9" d="M132.176,80.927c-0.174-0.205-0.348-0.411-0.521-0.616
			c0.29-0.955,0.581-1.909,1.011-3.317C133.691,78.861,133.486,79.989,132.176,80.927z"/>
		<path fill-rule="evenodd" clip-rule="evenodd" fill="#DEDEDE" d="M134.77,69.841c-1.232,0.31-2.605-0.314-3.755,0.559
			c-0.735,0.075-1.483,0.289-2.307-0.263C130.763,69.172,132.746,69.184,134.77,69.841z"/>
		<path fill-rule="evenodd" clip-rule="evenodd" fill="#E3E1E1" d="M124.501,71.052c0.346,0.033,0.803,0.024,0.671,0.579
			c-0.132,0.555-0.438,1.058-1.056,1.178c-0.435,0.084-0.719-0.16-0.697-0.623C123.451,71.525,123.868,71.196,124.501,71.052z"/>
		<path fill-rule="evenodd" clip-rule="evenodd" fill="#C6C4C4" d="M117.523,77.693c-0.223,0.4-0.387,1.04-1.125,0.914
			c-0.164-0.028-0.382-0.391-0.384-0.6c-0.005-0.782,0.714-0.792,1.213-0.94C117.519,76.98,117.682,77.276,117.523,77.693z"/>
		<path fill-rule="evenodd" clip-rule="evenodd" fill="#FDFDFD" d="M174.096,110.038c0,0.765,0.109,1.549-0.023,2.29
			c-0.252,1.408-0.636,2.847-2.486,1.343c-0.562-0.457-1.229-0.434-1.848-0.636c-1.431-0.47-3.141-0.749-4.141-1.72
			c-1.547-1.502,1.02-2.13,1.344-3.456c0.979-4.012,1.506-7.67-2.078-10.708c-0.56-0.474-1.167-1.011-0.592-1.942
			c0.554-0.897,1.398-0.586,2.05-0.474c1.677,0.289,2.94,1.373,3.91,2.699C172.581,100.646,174.241,106.108,174.096,110.038z"/>
		<path fill-rule="evenodd" clip-rule="evenodd" fill="#FAF9F9" d="M178.255,111.395c0,1.602,0.054,2.562-0.018,3.512
			c-0.053,0.714,0.321,1.722-0.602,2.024c-0.756,0.247-1.338-0.532-1.96-0.932c-0.813-0.522-0.425-1.068-0.32-1.852
			c0.368-2.749,1.051-5.617,0.253-8.309c-0.908-3.065-2.057-6.076-3.854-8.832c-1.245-1.911-2.807-3.003-4.922-3.48
			c-0.845-0.189-1.75-0.243-1.857-1.388c-0.066-0.694,0.013-1.339,0.643-1.787c0.948-0.677,1.687,0.116,2.327,0.497
			c6.609,3.929,9.478,10.067,10.118,17.472C178.17,109.558,178.219,110.799,178.255,111.395z"/>
		<path fill-rule="evenodd" clip-rule="evenodd" fill="#F9F8F8" d="M152.824,78.572c0.392-0.897-0.682-2.529,0.597-2.67
			c1.046-0.116,1.924,1.263,2.399,2.506c0.95,2.479,0.267,5.103,0.86,7.647c0.534,2.288,0.135,4.754,0.676,7.115
			c0.313,1.365-0.728,1.895-1.839,2.023c-1.329,0.153-0.846-0.974-0.924-1.612C153.986,88.587,153.411,83.588,152.824,78.572z"/>
		<path fill-rule="evenodd" clip-rule="evenodd" fill="#F9F8F8" d="M153.906,55.701c1.097,6.581,0.263,12.707,1.437,18.833
			c-2.318-0.212-3.504-1.902-3.326-3.222C152.69,66.303,149.091,60.812,153.906,55.701z"/>
		<path fill-rule="evenodd" clip-rule="evenodd" fill="#F5F4F4" d="M156.906,44.577c0.552,1.011,1.103,2.022,1.654,3.032
			c1.271,3.715,0.594,7.227-1.042,10.669c-0.26,0.548-0.492,1.178-1.075,1.14c-0.801-0.051-0.498-0.858-0.586-1.367
			c-0.416-2.398,0.058-4.748,0.629-7.034c0.499-1.997,0.817-3.82-0.402-5.694C155.463,44.369,156.445,44.635,156.906,44.577z"/>
		<path fill-rule="evenodd" clip-rule="evenodd" fill="#F4F3F3" d="M159.829,109.656c4.125-2.932,5.707-6.522,2.529-11.35
			c2.368,0.81,3.503,2.312,3.729,4.405c0.189,1.755-0.154,3.482-0.714,5.082C164.362,110.688,163.383,110.959,159.829,109.656z"/>
		<path fill-rule="evenodd" clip-rule="evenodd" fill="#F3F2F2" d="M162.117,92.316c0.102,0.852-0.092,1.715-0.885,2.422
			c-0.726,0.646-1.692,0.036-1.677-0.24c0.167-2.852-1.332-5.46-1.134-8.305c0.033-0.47,0.191-0.811,0.53-0.821
			c0.31-0.011,0.707,0.261,0.933,0.523C161.427,87.698,162.109,89.822,162.117,92.316z"/>
		<path fill-rule="evenodd" clip-rule="evenodd" fill="#F5F5F4" d="M158.265,98.037c2.889,1.316,4.397,3.07,4.313,5.48
			c-0.071,2.059-1.315,3.76-3.866,4.775C160.382,104.741,160.337,101.65,158.265,98.037z"/>
		<path fill-rule="evenodd" clip-rule="evenodd" fill="#E9E8E7" d="M154.548,100.376c1.266-0.956,2.194-1.229,3.116,0.002
			c1.495,1.996,1.271,4.834-1.261,7.65C158.161,104.354,157.564,101.971,154.548,100.376z"/>
		<path fill-rule="evenodd" clip-rule="evenodd" fill="#F2F1F1" d="M156.321,69.213c0.012-1.521,1.433-2.108,2.162-3.129
			c0.529-0.74,1.189-0.131,1.282,0.658c0.23,1.966-1.056,3.366-2.462,4.065C155.898,71.505,156.61,69.817,156.321,69.213z"/>
		<path fill-rule="evenodd" clip-rule="evenodd" fill="#EBEAE9" d="M156.961,65.274c-0.272-0.184-0.384-0.217-0.41-0.283
			c-0.843-2.079,0.393-3.566,1.488-5.071c0.241-0.331,0.873-0.318,0.881,0.09C158.957,61.961,158.722,63.863,156.961,65.274z"/>
		<path fill-rule="evenodd" clip-rule="evenodd" fill="#D8D7D6" d="M160.856,77.013c-1.688-1.035-3.677,0.015-3.961-2.167
			c-0.044-0.34,0.034-0.938,0.531-0.83C158.811,74.315,159.651,75.372,160.856,77.013z"/>
		<path fill-rule="evenodd" clip-rule="evenodd" fill="#F7F7F7" d="M155.902,98.152c-0.507-0.1-1.321,0.196-1.221-0.69
			c0.081-0.71,0.698-1.054,1.438-1.056c0.761-0.002,1.354,0.359,1.304,1.12C157.354,98.581,156.416,97.958,155.902,98.152z"/>
		<path fill-rule="evenodd" clip-rule="evenodd" fill="#C9C7C7" d="M149.907,69.028c-0.765-1.424-0.602-2.635-0.41-3.95
			C150.829,66.533,150.829,66.533,149.907,69.028z"/>
		<path fill-rule="evenodd" clip-rule="evenodd" fill="#F3F3F2" d="M158.617,82.575c1.671,0.347,1.671,0.347,2.271,1.454
			C159.876,84.134,159.188,83.722,158.617,82.575z"/>
		<path fill-rule="evenodd" clip-rule="evenodd" fill="#181818" d="M149.287,39.397c-0.784-0.907-0.408-1.97-0.4-2.984
			C149.361,37.362,149.339,38.377,149.287,39.397z"/>
		<path fill-rule="evenodd" clip-rule="evenodd" fill="#6D6C6C" d="M129.912,38.779c-0.119-1.479-0.337-2.967,0.466-4.769
			c0.946,1.73,0.503,3.286,0.55,4.769C130.59,39.17,130.251,39.176,129.912,38.779z"/>
		<path fill-rule="evenodd" clip-rule="evenodd" fill="#797978" d="M129.252,53.219c0.01-1.339,0.02-2.678,0.029-4.018
			c0.3-0.301,0.446-0.91,1.082-0.541c-0.226,1.538-0.451,3.076-0.678,4.614l-0.236,0.13L129.252,53.219z"/>
		<path fill-rule="evenodd" clip-rule="evenodd" fill="#505050" d="M129.252,53.219c0.137,0.084,0.281,0.102,0.434,0.055
			c0.241,0.747,0.29,1.487-0.148,2.327C128.303,54.903,128.399,54.117,129.252,53.219z"/>
		<path fill-rule="evenodd" clip-rule="evenodd" fill="#424242" d="M132.788,30.774c0.171,0.385,0.342,0.771,0.514,1.155
			c-0.024,1.009-0.05,2.018-0.075,3.027C132.557,33.618,132.734,32.189,132.788,30.774z"/>
		<path fill-rule="evenodd" clip-rule="evenodd" fill="#A7A6A6" d="M130.363,48.66c-0.361,0.181-0.722,0.361-1.082,0.541
			c0.043-0.669-0.428-1.662,0.517-1.84C130.448,47.239,130.449,48.086,130.363,48.66z"/>
		<path fill-rule="evenodd" clip-rule="evenodd" fill="#848484" d="M130.861,32.71c-0.303,0.246-0.494,0.4-0.686,0.556
			c-0.106-0.238-0.287-0.473-0.297-0.715c-0.01-0.238,0.154-0.482,0.242-0.724C130.346,32.096,130.571,32.365,130.861,32.71z"/>
		<path fill-rule="evenodd" clip-rule="evenodd" fill="#A4A4A4" d="M129.912,38.779c0.339,0,0.677,0,1.016,0
			c-0.272,0.647-0.546,1.294-1.016,2.408C129.912,40.042,129.912,39.411,129.912,38.779z"/>
		<path fill-rule="evenodd" clip-rule="evenodd" fill="#0E0E0E" d="M129.538,59.416c-1.174-1.445-0.629-2.236-1.078-3.479
			C129.761,57.136,128.915,57.943,129.538,59.416z"/>
	</g>
</g>
</svg>
